<svg width="254" height="64" viewBox="0 0 254 64" fill="none" xmlns="http://www.w3.org/2000/svg">
<path fill-rule="evenodd" clip-rule="evenodd" d="M25.0154 40.3042C24.5497 40.4894 24.2111 40.8672 23.8376 41.1488C23.2212 41.6132 22.594 42.022 21.9172 42.4281C21.1428 42.8927 20.284 43.3204 19.3313 43.6053C18.6116 43.8206 17.4762 44.0017 16.5917 43.861C15.8645 43.7457 15.2743 43.7891 14.6713 43.6053C12.4983 42.9421 11.2191 41.4682 10.3953 39.4596C9.91131 38.2795 9.76947 36.9391 9.52491 35.4932C9.2976 34.1506 9.36096 31.9335 9.57614 30.6566C10.3654 25.9674 11.3712 23.2059 16.105 22.4165C18.7629 21.9735 21.516 23.5287 22.916 24.5151C23.397 24.8541 24.7342 26.1046 25.5787 25.5642C26.6551 24.8754 26.7452 20.1897 26.142 18.7318C25.7437 17.7694 24.7547 17.2945 23.8888 16.7868C21.733 15.5226 18.9765 14.8888 15.5161 14.9443C15.0469 14.9785 14.5772 15.0127 14.108 15.0467C13.0146 15.2407 11.9587 15.3569 10.9842 15.6609C7.19491 16.8429 4.54593 19.029 2.68835 22.1352C1.60654 23.9443 0.959124 26.0542 0.435205 28.4303C0.124306 29.8417 0.255892 31.3718 0 32.9341C0.0086286 33.5397 0.0169876 34.1455 0.0256162 34.751C0.0426037 35.2628 0.0598609 35.7746 0.0768485 36.2866C0.283935 37.5206 0.34083 38.7474 0.614519 39.8434C1.98862 45.3478 4.72255 49.1561 9.9345 50.7959C10.9691 51.1215 12.0825 51.2581 13.263 51.4613C13.8093 51.4955 14.3556 51.5295 14.9016 51.5637C15.823 51.7146 16.9884 51.5502 17.7693 51.4104C20.2764 50.9603 22.3583 50.4777 24.1704 49.3886C24.9024 48.9485 25.7979 48.5163 26.1932 47.7509C26.8247 46.5274 26.7891 42.2837 26.2957 40.8925C26.1304 40.4274 25.6534 40.0501 25.0154 40.3042ZM253.896 17.8618C253.774 17.0331 253.852 16.344 253.453 15.8401C252.927 15.1758 250.748 14.8745 249.514 14.8931C249.161 14.9273 248.808 14.9615 248.455 14.9955C247.582 15.1804 246.798 15.4493 246.141 15.8657C244.821 16.7019 243.627 17.9219 242.694 19.1667C242.268 19.7553 241.841 20.3439 241.414 20.9324V20.9745C241.406 20.6673 241.397 20.3595 241.388 20.0523C241.389 19.1468 241.591 16.8898 241.235 16.3376C240.465 15.1448 234.155 15.1709 233.596 16.4914C233.372 17.0218 233.52 18.0715 233.52 18.7458V47.6385C233.52 48.3454 233.356 49.5506 233.647 50.0327C233.955 50.5442 234.77 50.6911 235.456 50.8223C237.274 51.1697 241.956 51.1118 242.592 49.9818C242.776 49.6552 242.694 48.9623 242.694 48.4791V29.2237C243.056 28.6863 243.417 28.1487 243.778 27.6116C244.884 25.99 246.221 24.1688 248.332 23.6193C249.753 23.2498 251.088 23.8958 252.099 24.2335C252.643 24.4151 253.256 24.3367 253.502 23.9265C254.004 23.0897 254.108 19.2966 253.896 17.8618ZM203.298 29.5988C203.289 24.8067 206.49 20.284 211.952 21.4871C212.694 21.6504 213.405 21.88 213.975 22.229C216.108 23.5363 217.021 26.1024 216.971 29.5988H203.298ZM225.655 26.6096C225.033 23.7883 224.146 21.6046 222.658 19.6976C220.833 17.3587 218.06 15.9444 214.641 15.1919C213.761 14.9982 212.818 15.0394 211.874 14.8847H210.952C210.033 14.7327 208.464 14.8947 207.622 15.0639C206.31 15.3278 205.079 15.5649 203.959 16.0112C199.541 17.7707 196.577 21.1766 195.097 25.8672C194.76 26.933 194.596 27.9964 194.354 29.1954C194.26 29.9718 194.166 30.7485 194.072 31.5252C194.063 31.8833 194.055 32.242 194.046 32.6002V34.6484C194.063 35.1518 194.08 35.6555 194.097 36.1589C194.44 38.1944 194.548 40.0639 195.148 41.7654C196.87 46.6573 199.999 49.3584 205.112 50.8792C206.303 51.2336 207.613 51.2705 208.954 51.4934C209.833 51.5192 210.713 51.5449 211.592 51.5705C215.213 51.5705 218.323 51.0067 221.095 50.1367C222.23 49.7807 223.669 49.4371 224.143 48.4214C224.654 47.3294 224.774 42.7604 223.657 42.4308C222.817 42.1832 221.933 42.7267 221.377 42.9431C219.992 43.4818 218.514 43.8144 216.972 44.1974C216.058 44.424 215.073 44.4175 214.077 44.5814C213.192 44.7269 211.785 44.6916 210.952 44.5558C209.921 44.3873 209.046 44.3464 208.211 44.0181C205.034 42.7685 203.328 40.0469 203.396 35.5698H218.483C220.146 35.57 223.665 35.8368 224.681 35.2372C225.875 34.5333 226.014 33.1874 226.014 31.2689C226.005 30.7145 225.997 30.1597 225.988 29.605C225.818 28.581 225.864 27.5604 225.655 26.6096ZM137.504 41.1998C136.402 42.6868 134.443 44.2653 132.459 44.859C129.22 45.8289 126.413 44.2661 125.854 41.7115C125.647 40.767 125.829 39.6146 126.11 38.9223C127.52 35.4377 132.576 35.6608 137.504 35.6978V41.1998ZM146.678 31.1172C146.678 28.6136 146.835 25.8965 146.371 23.7985C145.295 18.9339 142.885 16.6486 138.152 15.4563C137.238 15.2259 136.324 15.22 135.31 15.0467C133.951 14.8146 131.365 14.7551 129.959 14.9955C128.56 15.2348 127.204 15.3709 125.964 15.7121C123.631 16.3543 119.835 17.3527 119 19.3713C118.383 20.8621 118.645 25.4729 120.485 25.1805C121.621 24.9999 122.416 24.3636 123.327 23.9265C126.327 22.4869 134.09 20.1636 136.641 23.7473C137.653 25.1686 137.69 27.4337 137.666 29.9147C129.318 29.9112 121.865 30.3119 118.539 35.2884C117.865 36.2977 117.403 37.4333 117.105 38.8455C117.063 39.306 117.02 39.7669 116.978 40.2274C116.969 40.7648 116.96 41.3022 116.952 41.8396C117.103 42.748 117.12 43.6093 117.361 44.3984C118.474 48.0387 121.004 50.0648 124.735 51.1031C125.948 51.4406 128.379 51.837 130.01 51.5637C131.087 51.3832 132.078 51.2937 133.006 51.0007C134.881 50.4087 136.413 49.407 137.794 48.3139C138.22 47.9045 138.647 47.4949 139.074 47.0855C139.064 48.1155 138.827 50.0311 139.432 50.489C140.473 51.277 145.907 51.2021 146.55 50.2076C146.803 49.816 146.678 48.8405 146.678 48.2371V31.1172ZM113.91 15.8401C113.384 15.1758 111.204 14.8745 109.971 14.8931C109.618 14.9273 109.265 14.9615 108.912 14.9955C108.039 15.1804 107.255 15.4493 106.598 15.8657C105.278 16.7019 104.083 17.9219 103.151 19.1667C102.724 19.7553 102.298 20.3439 101.871 20.9324V20.9745C101.862 20.6673 101.854 20.3595 101.845 20.0523C101.845 19.1468 102.048 16.8898 101.691 16.3376C100.922 15.1448 94.6116 15.1709 94.0532 16.4914C93.8288 17.0218 93.9761 18.0715 93.9761 18.7458V47.6385C93.9761 48.3454 93.8129 49.5506 94.1036 50.0327C94.4121 50.5442 95.2267 50.6911 95.9132 50.8223C97.7309 51.1697 102.413 51.1118 103.049 49.9818C103.233 49.6552 103.151 48.9623 103.151 48.4791V29.2237C103.512 28.6863 103.873 28.1487 104.234 27.6116C105.34 25.99 106.678 24.1688 108.789 23.6193C110.21 23.2498 111.544 23.8958 112.556 24.2335C113.099 24.4151 113.713 24.3367 113.959 23.9265C114.461 23.0897 114.565 19.2966 114.353 17.8618C114.231 17.0331 114.309 16.344 113.91 15.8401ZM50.6707 28.021C50.1506 30.5542 48.8085 31.9351 46.2156 32.3967C41.4322 33.2486 38.5394 28.7742 40.2757 24.5407C40.798 23.2668 41.7533 22.2848 43.0406 21.777C43.5516 21.5755 44.1817 21.6366 44.7563 21.4186C47.5641 21.4057 49.1521 22.2379 50.1586 24.0031C50.4086 24.4413 50.5521 25.0188 50.6707 25.5642C50.8274 26.2833 50.815 27.3203 50.6707 28.021ZM40.5572 50.0028C40.8643 49.7554 41.1717 49.508 41.4788 49.2606C42.8187 49.3032 44.1588 49.346 45.4989 49.3886C46.523 49.4142 47.5471 49.4398 48.5713 49.4654C50.9762 49.8403 53.5678 50.662 52.8473 53.8159C52.7467 54.2557 52.5949 54.7165 52.3864 55.0696C50.726 57.8796 44.5166 58.5452 40.8133 57.0145C39.2788 56.3801 37.9559 55.051 38.6624 52.7155C38.9808 51.6626 39.7836 50.6251 40.5572 50.0028ZM78.8269 23.2013H84.2511C84.9201 23.2013 86.0108 23.3433 86.4622 23.0736C87.4644 22.4745 87.4601 20.2167 87.3617 18.6261C87.3072 17.7473 87.2811 16.8854 86.9249 16.2998C86.5226 15.6393 85.6284 15.7377 84.5598 15.7377H78.8269V10.4211C78.8269 9.71905 78.9822 8.62625 78.7504 8.0692C78.5104 7.49383 77.8627 7.3316 77.1913 7.17475C75.4661 6.77213 71.1771 6.77186 70.0611 7.60918C69.5423 7.9986 69.652 8.9774 69.652 9.88425V15.7377H51.6859C50.5661 15.7377 49.8453 15.4854 48.8999 15.303C47.2112 14.9774 44.8043 14.868 42.9964 15.1752C37.6294 16.0877 34.1102 18.358 32.4926 22.997C31.8681 24.7881 31.5804 27.7927 32.1092 29.9751C32.4255 31.2789 32.919 32.4183 33.5917 33.3747C33.8813 33.7323 34.1709 34.0902 34.4605 34.4481C34.5201 34.5079 34.58 34.5675 34.6396 34.6271C33.205 35.6926 31.818 37.819 31.317 39.8159C30.5234 42.9803 32.2022 46.3684 34.3839 47.1262C33.9069 47.5181 33.4297 47.9102 32.9527 48.3023C31.8957 49.1539 30.9392 50.506 30.3716 51.8294C30.102 52.4579 29.9278 53.1545 29.7835 53.9C29.4233 55.7651 29.9618 57.7047 30.627 58.8333C32.2483 61.5832 35.2174 62.7224 38.805 63.5109C39.6797 63.7031 40.545 63.685 41.4888 63.8432C42.6224 64.0332 43.9078 63.9979 45.1856 63.9966C45.9269 63.961 47.1365 63.9028 47.8777 63.8669C48.9911 63.7511 50.0802 63.7362 51.0978 63.4853C55.5348 62.3912 59.5112 60.6096 61.1927 56.7884C61.5557 55.964 61.8288 55.0962 62.0362 54.1045C62.4167 52.2846 62.0497 50.0942 61.4996 48.7877C60.2584 45.8397 57.8583 44.2184 54.5226 43.3689C53.664 43.1501 52.7456 43.0903 51.8137 42.9345C50.9873 42.9006 50.1608 42.8663 49.3346 42.8324C48.636 42.8065 47.9373 42.7809 47.2389 42.7556C44.244 42.2705 40.7192 43.2905 39.3931 41.0939C39.1289 40.6562 39.0372 39.904 39.2141 39.2791C39.4055 38.6029 39.875 38.2003 40.1341 37.6432C40.2684 37.5621 41.6174 38.1952 42.0254 38.3334C43.5076 38.8366 45.9821 39.0454 47.8524 38.691C48.7018 38.5304 49.5514 38.4679 50.3312 38.231C54.3195 37.0199 56.7887 34.9928 58.2283 31.2277C58.766 29.8212 59.1909 27.3426 58.7649 25.4764C58.5567 24.5641 58.2183 23.8993 57.8448 23.2013H69.652V36.6653C69.652 40.4212 69.6553 43.9106 70.7799 46.4757C71.9254 49.089 73.9671 50.4653 77.0333 51.1886C78.1345 51.4486 80.1174 51.6952 81.4929 51.4705C83.128 51.2031 84.5784 51.1102 85.8495 50.5485C87.3027 49.9066 87.0726 48.8407 87.3617 47.065V45.5416C87.2247 44.6763 87.3574 43.7053 86.9249 43.1388C86.5309 42.623 85.5365 43.097 85.0994 43.2668C83.6341 43.8352 81.3279 43.9238 80.1638 43.011C78.7738 41.9212 78.8267 39.3545 78.8269 36.8765V23.2013ZM177.403 38.5641C176.917 39.1271 176.431 39.6901 175.944 40.2528C174.492 42.0595 172.839 43.349 170.004 43.8101C168.445 44.0634 167.12 43.3115 166.342 42.7097C164.486 41.272 163.859 38.9406 163.347 36.133C163.296 35.3825 163.244 34.6316 163.193 33.8811C163.036 32.9147 163.137 31.6438 163.296 30.759C163.859 27.6208 164.654 24.9199 166.906 23.4916C167.358 23.2043 167.912 22.979 168.497 22.8305C168.861 22.7963 169.443 22.7413 169.806 22.7068C172.73 22.8413 174.627 24.4876 175.97 26.1528C176.276 26.5323 177.262 27.3828 177.403 27.7905V38.5641ZM186.578 4.34641C186.579 3.52445 186.769 1.7501 186.501 1.13565C185.983 -0.0549769 182.969 -0.0137449 181.175 0.00619773C180.839 0.0315302 180.293 0.0727632 179.958 0.0980957C178.995 0.235538 177.935 0.32555 177.532 1.00737C177.33 1.34936 177.403 2.04627 177.403 2.57421V19.2185C176.932 18.7905 176.461 18.3623 175.99 17.934C174.766 16.9811 173.475 16.1012 171.904 15.494C168.661 14.2409 163.853 14.9995 161.418 16.4187C157.629 18.6269 155.597 22.0123 154.402 26.8212C154.164 27.7776 154.115 28.7311 153.94 29.7751C153.751 30.8951 153.552 33.0287 153.734 34.2703C153.76 34.9979 153.785 35.7258 153.811 36.4537C154.047 37.9745 154.134 39.4405 154.479 40.8201C155.721 45.786 158.327 49.6258 163.063 51.0943C164.535 51.5508 166.804 51.9553 168.794 51.6338C169.842 51.4643 170.841 51.3309 171.724 50.9916C173.847 50.1755 175.452 48.9779 177.069 47.6781C177.635 47.1216 178.2 46.5649 178.766 46.0086C178.755 47.1839 178.517 50.0268 179.151 50.5038C180.246 51.3271 185.902 51.4093 186.476 50.1696C186.784 49.5026 186.579 47.5202 186.578 46.5994V4.34641Z" fill="#B8BEC8"/>
</svg>
