<svg width="165" height="44" viewBox="0 0 165 44" fill="none" xmlns="http://www.w3.org/2000/svg">
<path d="M0.00304062 0.0166425C9.79966 0.0166425 19.5942 0.0249971 29.3908 0.0124686C29.4013 2.62257 29.4119 5.23266 29.3866 7.84485C22.4685 7.84276 15.5483 7.83859 8.62803 7.84694C8.63225 11.1231 8.62382 14.4014 8.63225 17.6776C14.6906 17.6651 20.749 17.6755 26.8052 17.6734C26.8389 20.2752 26.7989 22.8769 26.8263 25.4787C20.7616 25.4724 14.699 25.4849 8.63646 25.4724C8.62171 31.6448 8.62803 37.8171 8.63225 43.9895C5.76006 43.9582 2.88787 43.9582 0.0156842 43.9874C-0.0159246 29.3312 0.0114696 14.6729 0.00304062 0.0166425Z" fill="#B8BEC8"/>
<path d="M35.1056 43.9896C35.0951 29.3271 35.093 14.6646 35.1077 0.00211007C45.231 0.0334313 55.3563 0.0167284 65.4817 0.0104642C65.4838 2.62265 65.4712 5.23484 65.488 7.84493C58.178 7.84493 50.8658 7.83241 43.5557 7.85329C43.5789 10.9186 43.5578 13.986 43.5663 17.0534C50.28 17.0367 56.9916 17.0471 63.7053 17.0471C63.68 19.6468 63.7095 22.2485 63.6863 24.8482C56.981 24.8544 50.2736 24.8586 43.5684 24.844C43.5515 28.6067 43.5852 32.3694 43.5515 36.1301C51.1924 36.1551 58.8333 36.1342 66.4763 36.1405C66.4953 38.7506 66.4953 41.3607 66.4763 43.9729C56.0201 43.9812 45.5618 43.9457 35.1056 43.9896Z" fill="#B8BEC8"/>
<path d="M72.9603 0.00211007C76.0032 0.0250789 79.0461 0.0313432 82.0889 0.00211007C87.5783 10.2191 93.0656 20.4361 98.5656 30.6468C98.5845 20.4381 98.5824 10.2295 98.5656 0.0229921C101.248 0.00837558 103.931 0.0271708 106.613 0.0125543C106.626 14.6688 106.624 29.325 106.615 43.9812C103.745 43.9603 100.875 43.9729 98.0071 43.9729C92.3766 33.5095 86.7333 23.0524 81.0732 12.6037C81.0754 23.0649 81.0775 33.5241 81.0711 43.9854C78.3675 43.9624 75.6618 43.952 72.9561 43.9917C72.9751 29.3292 72.9666 14.6646 72.9603 0.00211007Z" fill="#B8BEC8"/>
<path d="M114.853 0.0105504C121.12 0.0293431 127.387 0.0105478 133.654 0.0209882C137.09 0.0752783 140.61 1.0358 143.258 3.28466C146.034 5.43955 147.654 8.68861 148.668 11.9648C149.523 14.9487 149.835 18.0599 149.888 21.1544C149.763 25.934 149.083 30.8285 146.855 35.1299C145.46 38.1096 143.136 40.6801 140.224 42.2649C138.089 43.4154 135.651 43.8999 133.241 43.9625C127.117 43.9917 120.991 43.9395 114.867 43.9897C114.825 29.3293 114.855 14.6689 114.853 0.0105504ZM123.393 7.6738C123.37 17.2184 123.381 26.763 123.387 36.3076C126.112 36.2951 128.834 36.3076 131.559 36.3014C132.674 36.2721 133.812 36.1343 134.84 35.6875C136.831 34.8731 138.245 33.1087 139.183 31.244C140.765 27.8446 141.111 24.0151 141.008 20.3171C140.913 16.7736 140.369 12.9796 138.011 10.1649C136.593 8.42342 134.246 7.84502 132.092 7.70512C129.192 7.65292 126.293 7.71556 123.393 7.6738Z" fill="#B8BEC8"/>
<path d="M155.651 44C155.619 29.3333 155.624 14.6667 155.649 0C158.517 0.0417616 161.387 0.0104399 164.255 0.012528C164.268 14.6646 164.274 29.3187 164.253 43.9729C161.385 43.9854 158.517 43.9311 155.651 44Z" fill="#B8BEC8"/>
</svg>
