<svg width="240" height="64" viewBox="0 0 240 64" fill="none" xmlns="http://www.w3.org/2000/svg">
<path fill-rule="evenodd" clip-rule="evenodd" d="M31.882 5.81818C17.4755 5.81818 5.79672 17.5402 5.79672 32C5.79672 46.4598 17.4755 58.1818 31.882 58.1818C46.2885 58.1818 57.9672 46.4598 57.9672 32C57.9672 17.5402 46.2885 5.81818 31.882 5.81818ZM0 32C0 14.3269 14.2741 0 31.882 0C49.4899 0 63.764 14.3269 63.764 32C63.764 49.6731 49.4899 64 31.882 64C14.2741 64 0 49.6731 0 32Z" fill="#B8BEC8"/>
<path d="M31.8826 49.9835C41.778 49.9835 49.7998 41.9321 49.7998 32.0001C49.7998 22.0681 41.778 14.0166 31.8826 14.0166C21.9872 14.0166 13.9655 22.0681 13.9655 32.0001C13.9655 41.9321 21.9872 49.9835 31.8826 49.9835Z" fill="#B8BEC8"/>
<path fill-rule="evenodd" clip-rule="evenodd" d="M31.8823 16.3975C23.2966 16.3975 16.3365 23.3834 16.3365 32.0008C16.3365 40.6183 23.2966 47.6041 31.8823 47.6041C40.468 47.6041 47.428 40.6183 47.428 32.0008C47.428 23.3834 40.468 16.3975 31.8823 16.3975ZM11.5938 32.0008C11.5938 20.7543 20.6772 11.6372 31.8823 11.6372C43.0873 11.6372 52.1708 20.7543 52.1708 32.0008C52.1708 43.2474 43.0873 52.3645 31.8823 52.3645C20.6772 52.3645 11.5938 43.2474 11.5938 32.0008Z" fill="#B8BEC8"/>
<path d="M104.67 21.0903C107.223 21.0903 109.535 21.6791 111.605 22.8566C113.676 23.9994 115.297 25.6271 116.47 27.7397C117.644 29.8522 118.23 32.2592 118.23 34.9605C118.23 37.6964 117.644 40.1206 116.47 42.2332C115.297 44.3457 113.676 45.9908 111.605 47.1683C109.57 48.3111 107.258 48.8825 104.67 48.8825C102.462 48.8825 100.46 48.4323 98.6662 47.5319C96.9065 46.5968 95.4573 45.2462 94.3186 43.4799V58.7007H90.6439V21.2981H94.1634V26.7007C95.2675 24.8999 96.7167 23.5146 98.5109 22.5449C100.34 21.5752 102.393 21.0903 104.67 21.0903ZM104.411 45.6098C106.309 45.6098 108.034 45.1769 109.587 44.3111C111.139 43.4107 112.347 42.1466 113.21 40.5189C114.107 38.8912 114.555 37.0384 114.555 34.9605C114.555 32.8825 114.107 31.047 113.21 29.454C112.347 27.8263 111.139 26.5622 109.587 25.6618C108.034 24.7613 106.309 24.3111 104.411 24.3111C102.479 24.3111 100.736 24.7613 99.1837 25.6618C97.6655 26.5622 96.4579 27.8263 95.5608 29.454C94.6982 31.047 94.2669 32.8825 94.2669 34.9605C94.2669 37.0384 94.6982 38.8912 95.5608 40.5189C96.4579 42.1466 97.6655 43.4107 99.1837 44.3111C100.736 45.1769 102.479 45.6098 104.411 45.6098Z" fill="#B8BEC8"/>
<path d="M135.093 21.0903C138.647 21.0903 141.372 21.9908 143.27 23.7916C145.168 25.5579 146.117 28.1899 146.117 31.6877V48.6228H142.597V44.3631C141.769 45.783 140.544 46.8912 138.923 47.6877C137.335 48.4843 135.438 48.8825 133.229 48.8825C130.193 48.8825 127.778 48.1553 125.983 46.7007C124.189 45.2462 123.292 43.3241 123.292 40.9345C123.292 38.6141 124.12 36.744 125.776 35.3241C127.467 33.9042 130.141 33.1942 133.799 33.1942H142.442V31.5319C142.442 29.1769 141.786 27.3934 140.475 26.1812C139.164 24.9345 137.249 24.3111 134.73 24.3111C133.005 24.3111 131.349 24.6055 129.762 25.1942C128.175 25.7483 126.812 26.5276 125.673 27.5319L124.017 24.7786C125.397 23.6012 127.053 22.7007 128.985 22.0773C130.918 21.4193 132.953 21.0903 135.093 21.0903ZM133.799 45.9735C135.869 45.9735 137.646 45.5059 139.13 44.5709C140.613 43.6012 141.717 42.2159 142.442 40.415V35.9475H133.902C129.244 35.9475 126.915 37.5752 126.915 40.8306C126.915 42.4237 127.519 43.6877 128.727 44.6228C129.934 45.5232 131.625 45.9735 133.799 45.9735Z" fill="#B8BEC8"/>
<path d="M180.63 21.2981V48.6228H177.111V43.6358C176.145 45.2981 174.816 46.5968 173.126 47.5319C171.435 48.4323 169.503 48.8825 167.329 48.8825C163.775 48.8825 160.963 47.8955 158.893 45.9215C156.857 43.9128 155.839 40.9864 155.839 37.1423V21.2981H159.514V36.7786C159.514 39.6531 160.221 41.8349 161.636 43.3241C163.05 44.8133 165.069 45.5579 167.691 45.5579C170.555 45.5579 172.815 44.6921 174.471 42.9605C176.127 41.1942 176.956 38.7527 176.956 35.6358V21.2981H180.63Z" fill="#B8BEC8"/>
<path d="M198.22 48.8825C196.011 48.8825 193.889 48.5709 191.854 47.9475C189.852 47.2895 188.283 46.4756 187.144 45.5059L188.8 42.5968C189.939 43.4973 191.371 44.2418 193.096 44.8306C194.821 45.3847 196.615 45.6618 198.479 45.6618C200.963 45.6618 202.792 45.2808 203.965 44.5189C205.172 43.7224 205.776 42.6141 205.776 41.1942C205.776 40.1899 205.448 39.4107 204.793 38.8566C204.137 38.2678 203.309 37.8349 202.309 37.5579C201.308 37.2462 199.979 36.9518 198.323 36.6747C196.115 36.2592 194.338 35.8436 192.992 35.428C191.647 34.9778 190.491 34.2332 189.525 33.1942C188.593 32.1553 188.127 30.718 188.127 28.8825C188.127 26.5968 189.076 24.7267 190.974 23.2722C192.872 21.8176 195.511 21.0903 198.893 21.0903C200.652 21.0903 202.412 21.3328 204.172 21.8176C205.931 22.2678 207.381 22.8739 208.519 23.6358L206.915 26.5968C204.672 25.0384 201.998 24.2592 198.893 24.2592C196.546 24.2592 194.769 24.6747 193.562 25.5059C192.389 26.3371 191.802 27.428 191.802 28.7786C191.802 29.8176 192.13 30.6488 192.785 31.2722C193.475 31.8955 194.321 32.3631 195.321 32.6747C196.322 32.9518 197.702 33.2462 199.462 33.5579C201.636 33.9735 203.378 34.389 204.689 34.8046C206 35.2202 207.122 35.9302 208.053 36.9345C208.985 37.9388 209.451 39.3241 209.451 41.0903C209.451 43.4799 208.45 45.3847 206.449 46.8046C204.482 48.1899 201.739 48.8825 198.22 48.8825Z" fill="#B8BEC8"/>
<path d="M239.949 36.1033H217.176C217.383 38.9431 218.47 41.2462 220.437 43.0124C222.403 44.744 224.888 45.6098 227.89 45.6098C229.58 45.6098 231.133 45.3154 232.548 44.7267C233.962 44.1033 235.187 43.2029 236.222 42.0254L238.293 44.415C237.085 45.8696 235.567 46.9778 233.738 47.7397C231.944 48.5016 229.96 48.8825 227.786 48.8825C224.991 48.8825 222.507 48.2938 220.333 47.1163C218.194 45.9042 216.52 44.2418 215.313 42.1293C214.105 40.0167 213.501 37.6271 213.501 34.9605C213.501 32.2938 214.071 29.9042 215.209 27.7916C216.382 25.6791 217.97 24.0341 219.971 22.8566C222.007 21.6791 224.284 21.0903 226.803 21.0903C229.321 21.0903 231.582 21.6791 233.583 22.8566C235.584 24.0341 237.154 25.6791 238.293 27.7916C239.431 29.8696 240.001 32.2592 240.001 34.9605L239.949 36.1033ZM226.803 24.2592C224.18 24.2592 221.972 25.1077 220.178 26.8046C218.418 28.467 217.417 30.6488 217.176 33.3501H236.481C236.24 30.6488 235.222 28.467 233.427 26.8046C231.668 25.1077 229.459 24.2592 226.803 24.2592Z" fill="#B8BEC8"/>
</svg>
