<svg width="182" height="40" viewBox="0 0 182 40" fill="none" xmlns="http://www.w3.org/2000/svg">
<path d="M22.0783 29.2741C24.7659 28.4387 26.3273 24.9878 26.3273 19.8984C26.3273 13.1546 23.7966 9.98126 18.7427 10.3839L17.1309 10.51L17.0291 19.583C16.9757 24.5753 17.0115 28.8909 17.1083 29.1737C17.3234 29.8018 20.1857 29.863 22.0783 29.2741ZM33.7208 3.21642C37.2973 5.17549 40.1642 9.4982 41.0691 14.2703C41.292 15.4476 41.4747 18.0227 41.4747 19.9996C41.4747 21.9764 41.292 24.5515 41.0691 25.7285C40.1357 30.65 37.2414 34.8245 33.3715 36.8081C29.6951 38.6925 26.9801 38.9784 12.9494 38.9784H0V29.7919L1.14937 29.5397C3.5586 29 3.60615 28.8086 3.60615 20.1134C3.60615 15.4999 3.45343 11.9524 3.23441 11.4945C3.00671 11.0174 2.30769 10.6167 1.43133 10.46L0 10.2072V1.02046L13.4344 1.03304C27.9594 1.04097 30.1636 1.26801 33.7208 3.21642ZM105.721 25.1604L106.972 25.426C109.343 25.9238 110.145 28.912 108.335 30.511C107.538 31.2162 107.011 31.353 105.619 31.2053C101.898 30.8092 100.52 27.5046 100.728 19.4571C100.838 15.2028 100.972 14.2794 101.753 12.529C102.888 9.98728 104.552 8.69345 106.69 8.69345C109.414 8.69345 111.56 10.6055 112.077 13.5009L112.303 14.7498H120.147V1.02046H116.36C113.304 1.02046 112.573 1.13124 112.573 1.6009C112.573 2.61627 112.041 2.6201 110.139 1.6009C108.036 0.474479 105.225 -0.0876402 102.373 0.0111067C101.423 0.0439312 100.469 0.15827 99.5337 0.339078C90.4067 2.10285 85.4302 8.94784 85.4006 19.7977C85.3874 24.4579 85.913 27.3205 87.395 30.6374C89.7292 35.8601 93.8582 38.7825 100.311 39.7987C104.408 40.444 109.652 39.3548 112.258 37.3125C113.259 36.5278 113.633 36.716 114.128 38.2718C114.321 38.8777 114.844 38.9784 117.791 38.9784H121.229V32.9844C121.229 26.3402 121.333 26.0182 123.663 25.4637L124.835 25.1856V17.1731H105.721V25.1604ZM181.818 9.51351V1.02046H150.081V15.9616H157.62L157.869 13.4628C158.232 9.86145 159.013 9.09664 162.309 9.09664C163.695 9.09664 164.91 9.24928 165.014 9.43747C165.118 9.62621 161.639 14.4533 157.283 20.164L149.359 30.5488V38.9784H181.818V24.0375H173.884V26.2332C173.884 27.9696 173.697 28.6649 173.016 29.5523C172.238 30.5644 171.888 30.6979 169.387 30.8393C167.86 30.9257 166.461 30.8191 166.276 30.6123C166.068 30.3792 168.962 26.2803 173.872 19.8732L181.818 9.51351ZM66.273 30.1579C67.7295 28.5268 68.1553 26.2239 68.1553 19.9996C68.1553 13.775 67.7295 11.472 66.273 9.84149C65.5326 9.01239 64.6048 8.61932 63.6585 8.61741C62.0803 8.61358 60.4492 9.69815 59.5332 11.6589C58.7343 13.3682 58.4269 22.832 59.0599 26.2461C59.6822 29.6035 61.1908 31.3065 63.5567 31.3062C64.9295 31.3062 65.4389 31.0915 66.273 30.1579ZM63.5681 0.112315C74.5757 0.161552 81.1978 5.21105 83.0434 14.9646C84.8789 24.6694 81.3969 33.8422 74.5004 37.4895C70.6792 39.5104 64.5838 40.4571 59.6909 39.7861C51.4115 38.6507 45.9284 33.779 44.059 25.9181C43.4182 23.2227 43.4146 16.7535 44.059 14.0433C45.2792 8.91255 47.8375 5.22008 51.779 2.90103C55.3306 0.811476 58.3961 0.0887913 63.5681 0.112315ZM125.196 10.3081H126.289C126.974 10.3081 127.721 10.687 128.273 11.3052C129.149 12.2861 129.163 12.3698 129.163 19.7474C129.163 23.848 129.061 27.5019 128.938 27.861C128.667 28.6507 126.961 29.691 125.94 29.691C125.237 29.691 125.196 29.9227 125.196 34.3346V38.9784H146.114V29.7919L144.964 29.5397C142.55 28.9989 142.507 28.8195 142.507 19.9618V11.9863L143.454 11.1411C143.977 10.6807 144.788 10.3081 145.257 10.3081C146.104 10.3081 146.114 10.2783 146.114 5.66457V1.02046H125.196V10.3081Z" fill="#B8BEC8"/>
</svg>
