<svg width="260" height="56" viewBox="0 0 260 56" fill="none" xmlns="http://www.w3.org/2000/svg">
<path d="M32.685 23.8746C34.9926 24.3085 36.6182 25.2863 37.5688 26.7944C38.5194 28.3094 38.9947 30.692 38.9947 33.9423C38.9947 40.4016 37.0522 45.6834 33.1672 49.8014C29.2822 53.9125 24.3157 55.9715 18.2678 55.9715C15.8845 55.9715 13.57 55.5445 11.3244 54.6837C9.07879 53.823 7.15005 52.6247 5.53819 51.0891C3.69212 49.3951 2.30759 47.6116 1.38456 45.7247C0.461523 43.8379 0 41.9097 0 39.9403C0 37.7367 0.475298 36.0358 1.42589 34.8307C2.37647 33.6256 3.87121 32.8061 5.92393 32.3723C5.53818 31.4771 5.25578 30.7196 5.07668 30.1067C4.89758 29.4938 4.80803 29.0187 4.80803 28.6812C4.80803 27.5312 5.41421 26.3468 6.63345 25.1417C7.85268 23.9366 8.99613 23.3375 10.0776 23.3375C10.5391 23.3375 11.0282 23.4201 11.5379 23.5854C12.0477 23.7507 12.6401 24.0261 13.3082 24.4118C11.3313 18.827 9.89851 14.5162 9.00303 11.4794C8.10754 8.44255 7.6598 6.34913 7.6598 5.19224C7.6598 3.60151 7.93533 2.38953 8.73437 1.43923C9.71251 0.27545 11.1797 0 12.5918 0C15.4436 0 16.4631 2.44462 21.3882 16.1483C22.0495 17.9869 22.5179 19.4123 22.8485 20.4177C23.1309 19.6258 23.5305 18.4965 24.0402 17.0366C27.7323 6.37667 29.3097 1.04671 33.5736 1.04671C34.8824 1.04671 35.9225 1.48743 36.7078 2.37576C37.493 3.2572 37.8788 4.44852 37.8788 5.92906C37.8788 7.05841 37.4517 9.1174 36.5907 12.1198C35.7297 15.1153 34.4278 19.0336 32.685 23.8746ZM5.15244 39.5615C5.51063 39.9954 6.01348 40.6358 6.65409 41.4828C8.34861 43.8172 9.91226 44.981 11.345 44.981C11.8341 44.981 12.2681 44.8295 12.6538 44.5196C13.0396 44.2097 13.2325 43.893 13.2325 43.5556C13.2325 43.1699 12.9776 42.5295 12.4609 41.6343C11.9443 40.7391 11.2417 39.7268 10.3463 38.5975C9.3199 37.2891 8.46573 36.3388 7.79068 35.7328C7.10873 35.1337 6.56456 34.8307 6.15815 34.8307C5.26267 34.8307 4.43605 35.3127 3.67833 36.2699C2.92062 37.234 2.54179 38.3633 2.54179 39.6717C2.54179 40.7253 2.80355 41.896 3.32706 43.1906C3.85058 44.4852 4.61518 45.7867 5.61399 47.0951C7.12942 49.1196 9.00303 50.6759 11.2486 51.764C13.4942 52.852 15.974 53.396 18.688 53.396C23.6889 53.396 27.8701 51.5298 31.2454 47.8044C34.6137 44.0789 36.3014 39.4031 36.3014 33.7908C36.3014 32.0762 36.1705 30.7127 35.9157 29.7004C35.6608 28.6881 35.2337 27.9513 34.6482 27.4899C33.5943 26.6223 31.5554 25.8372 28.5176 25.1417C25.4799 24.4531 22.3044 24.1019 18.998 24.1019C18.0749 24.1019 17.4205 24.2534 17.0348 24.5633C16.649 24.8731 16.4562 25.3965 16.4562 26.1402C16.4562 27.8824 17.4274 29.1426 19.3768 29.9277C21.3262 30.7127 24.481 31.0983 28.8345 31.0983H30.4119C30.7701 31.0983 31.0594 31.236 31.2798 31.5046C31.5002 31.7732 31.6449 32.1795 31.7207 32.7166C31.2867 33.1298 30.3843 33.598 29.0273 34.1214C27.6703 34.6447 26.6302 35.1681 25.9138 35.6777C24.3777 36.807 23.1378 38.143 22.201 39.6924C21.2642 41.2418 20.7958 42.7085 20.7958 44.0927C20.7958 44.9397 20.9956 45.9589 21.3951 47.1502C21.7946 48.3415 21.9944 49.0783 21.9944 49.3607V49.6292L21.9186 49.9735C20.7889 49.8978 19.9003 49.2367 19.2459 47.9972C18.5915 46.7577 18.2678 45.0981 18.2678 43.0184V42.6741C18.0612 42.8532 17.8614 42.984 17.6685 43.0597C17.4757 43.1355 17.2621 43.1768 17.0348 43.1768C16.8006 43.1768 16.587 43.1562 16.3804 43.1217C16.1737 43.0804 15.9464 43.0253 15.6915 42.9496C15.7673 43.2319 15.8293 43.5073 15.8638 43.7759C15.9051 44.0445 15.9189 44.2579 15.9189 44.4094C15.9189 45.3597 15.5469 46.1723 14.803 46.8472C14.059 47.5289 13.1773 47.8663 12.151 47.8663C10.5391 47.8663 8.8928 47.0813 7.22583 45.5044C5.55886 43.9274 4.72537 42.3849 4.72537 40.8699C4.72537 40.5876 4.75982 40.3397 4.82182 40.1193C4.8907 39.899 5.0009 39.713 5.15244 39.5615ZM16.6904 40.4843C17.1243 40.4843 17.5239 40.2846 17.8821 39.8852C18.2403 39.4858 18.4193 39.0588 18.4193 38.5975C18.4193 38.1085 18.068 36.9792 17.3585 35.1956C16.6559 33.4121 15.7742 31.663 14.7272 29.9483C13.9557 28.6675 13.2049 27.6965 12.4609 27.0492C11.717 26.395 11.0144 26.0714 10.3463 26.0714C9.80897 26.0714 9.20966 26.4088 8.55527 27.0905C7.90088 27.7723 7.57714 28.4058 7.57714 28.9911C7.57714 29.604 7.90091 30.5268 8.54152 31.7594C9.18213 32.992 10.0432 34.2935 11.1177 35.6777C12.2474 37.1927 13.3082 38.3702 14.307 39.2172C15.3058 40.0573 16.098 40.4843 16.6904 40.4843ZM20.4583 21.9189L16.3046 9.92309C15.23 6.87248 14.3966 4.88235 13.8042 3.94582C13.2118 3.00929 12.5712 2.54103 11.8823 2.54103C11.345 2.54103 10.9111 2.74762 10.5735 3.15391C10.2429 3.56708 10.0707 4.11798 10.0707 4.8066C10.0707 5.98415 10.5185 8.03626 11.4139 10.956C12.3094 13.8758 13.6595 17.7114 15.4505 22.4492C15.602 22.1668 15.8224 21.9671 16.1049 21.8501C16.3873 21.733 16.773 21.6779 17.2552 21.6779C17.4067 21.6779 17.7167 21.6917 18.1783 21.7192C18.6467 21.7468 19.4044 21.8157 20.4583 21.9189ZM24.7979 33.5636C23.6958 33.5154 22.6488 33.3983 21.6637 33.2193C20.6787 33.0402 19.735 32.7855 18.8395 32.448C19.2459 33.2675 19.611 34.087 19.9348 34.9064C20.2585 35.7259 20.5203 36.5316 20.72 37.3304C21.3331 36.5591 21.9806 35.8636 22.6626 35.237C23.3445 34.6103 24.054 34.0525 24.7979 33.5636ZM29.9159 23.2204C31.6311 18.5585 32.9743 14.709 33.9318 11.6722C34.8962 8.63536 35.3715 6.76919 35.3715 6.08056C35.3715 5.33685 35.2131 4.7584 34.8893 4.35211C34.5656 3.94582 34.1247 3.73924 33.5598 3.73924C32.8434 3.73924 32.1133 4.33834 31.3693 5.52966C30.6254 6.72098 29.8057 8.63536 28.9102 11.2797L25.0666 22.3872L29.9159 23.2204Z" fill="#B8BEC8"/>
<path d="M75.4593 9.64795L90.2416 45.8765H82.5887L78.9654 36.9037H63.5494L60.0432 45.8765H52.7968L67.4688 9.64795H75.4593ZM65.7399 31.3878H76.7818L71.3194 17.815H71.0921L65.7399 31.3878Z" fill="#B8BEC8"/>
<path d="M99.1146 45.8764H92.2125V20.5144H99.1146V24.653C100.382 21.7745 103.599 19.8188 107.401 19.8188C114.186 19.8188 116.666 24.4189 116.666 30.0587V45.8764H109.764V31.4428C109.764 27.5315 108.214 25.2865 104.818 25.2865C101.312 25.2865 99.1215 28.0479 99.1215 32.3036V45.8764H99.1146Z" fill="#B8BEC8"/>
<path d="M131.805 37.0765C129.732 37.0765 127.838 36.7873 126.226 36.1537C125.592 36.5531 125.193 37.1867 125.193 37.9924C125.193 39.1424 125.943 39.893 127.838 39.893H137.964C143.598 39.893 146.478 42.9436 146.478 47.0271C146.478 53.3556 139.114 55.9999 131.234 55.9999C124.215 55.9999 118.235 54.2164 118.235 49.4993C118.235 46.9101 120.309 45.0714 123.298 44.672C120.998 43.9214 119.792 42.0828 119.792 40.0169C119.792 37.7169 121.404 35.9885 123.877 35.0175C121.693 33.5232 120.371 31.2783 120.371 28.5169C120.371 23.1112 125.144 19.8333 131.819 19.8333C134.926 19.8333 137.798 20.639 139.872 22.0782C141.311 20.0674 143.839 18.4561 146.601 18.4561V23.9788C145.224 23.9788 143.55 24.2061 142.227 24.6675C142.916 25.7624 143.323 27.0845 143.323 28.5169C143.316 33.8055 138.48 37.0765 131.805 37.0765ZM131.234 51.7993C136.297 51.7993 139.975 50.6493 139.975 48.1771C139.975 46.5107 138.597 45.8771 136.297 45.8771H127.838C125.999 45.8771 124.504 46.6277 124.504 48.4663C124.504 50.7664 127.149 51.7993 131.234 51.7993ZM131.867 24.027C129.277 24.027 127.493 25.5764 127.493 28.51C127.493 31.4435 129.277 32.9929 131.867 32.9929C134.512 32.9929 136.297 31.4435 136.297 28.51C136.297 25.5764 134.512 24.027 131.867 24.027Z" fill="#B8BEC8"/>
<path d="M172.716 37.5991C171.393 43.232 167.019 46.5718 160.523 46.5718C152.698 46.5718 147.064 41.5655 147.064 33.5775C147.064 25.5825 152.76 19.8325 160.351 19.8325C168.638 19.8325 172.895 25.5825 172.895 32.4826V34.9547H153.856C154.083 38.694 157.017 41.3383 160.758 41.3383C164.154 41.3383 166.165 39.8991 167.143 37.0275L172.716 37.5991ZM166.158 30.637C165.931 27.7035 164.147 24.887 160.289 24.887C156.494 24.887 154.593 27.4763 153.959 30.637H166.158Z" fill="#B8BEC8"/>
<path d="M182.51 9.64795V45.8765H175.607V9.64795H182.51Z" fill="#B8BEC8"/>
<path d="M194.02 9.64795V39.8993H207.665V45.8834H186.828V9.64795H194.02Z" fill="#B8BEC8"/>
<path d="M209.286 9.64795H216.36V16.3758H209.286V9.64795ZM216.305 20.5145V45.8765H209.403V20.5145H216.305Z" fill="#B8BEC8"/>
<path d="M224.516 37.2547C224.915 40.3053 227.223 41.8548 230.729 41.8548C233.257 41.8548 235.331 40.994 235.331 39.1553C235.331 37.4269 234.18 36.6832 231.652 36.2769L227.623 35.5883C222.215 34.7275 219.226 32.7098 219.226 27.9996C219.226 23.1655 223.311 19.8325 229.751 19.8325C236.77 19.8325 240.972 22.9933 241.427 28.6332L235.73 28.8604C235.269 25.9888 233.312 24.5496 229.689 24.5496C227.216 24.5496 225.604 25.6445 225.604 27.3661C225.604 28.7433 226.527 29.549 228.367 29.8382L233.195 30.6439C238.547 31.5047 241.709 33.7496 241.709 38.5218C241.709 43.7003 237.225 46.5718 230.667 46.5718C224.054 46.5718 218.992 43.6934 218.53 37.4889L224.516 37.2547Z" fill="#B8BEC8"/>
<path d="M245.423 25.3488H241.799V21.2653L243.522 20.976C245.994 20.5766 246.683 19.3096 247.262 16.9476L248.068 13.4976H252.27V20.5147H259.172V25.3419H252.27V37.8818C252.27 40.0647 253.248 41.0426 255.321 41.0426C256.699 41.0426 258.139 40.5261 259.633 39.8375V44.3824C257.794 45.7596 255.721 46.5653 252.614 46.5653C248.702 46.5653 245.423 44.8438 245.423 39.4312V25.3488Z" fill="#B8BEC8"/>
</svg>
