<svg width="202" height="48" viewBox="0 0 202 48" fill="none" xmlns="http://www.w3.org/2000/svg">
<path d="M51.3364 24.8403V1.68113H58.559V3.21179C58.559 4.05384 58.5719 4.74268 58.5874 4.74268C58.6032 4.74268 59.059 4.46516 59.6005 4.12604C65.9883 0.12519 75.274 -1.07967 83.6025 1.01191C91.1057 2.89636 96.5452 7.36945 98.4788 13.246C99.6088 16.68 99.5465 20.4988 98.3062 23.8198C96.7636 27.9511 93.5922 31.2726 89.0178 33.548C85.0147 35.5392 80.4441 36.5363 75.3198 36.5363C71.0719 36.5363 67.1101 35.8278 63.6226 34.4449C62.2388 33.8962 60.4649 32.9955 59.3889 32.2949L58.559 31.7547V48H51.3364V24.8403ZM78.8135 30.3793C82.8762 29.803 86.0282 28.514 88.3914 26.4626C90.1804 24.9098 91.4261 22.7533 91.8981 20.3923C92.0913 19.4266 92.0917 17.1464 91.8993 16.1836C91.3436 13.405 89.7513 10.9779 87.368 9.27602C86.4072 8.5901 84.4558 7.61245 83.2101 7.19346C79.6925 6.01026 75.4275 5.65986 71.5212 6.23319C64.739 7.22843 60.1551 10.5923 58.9252 15.4758C58.3826 17.6306 58.4796 19.9568 59.1966 21.9897C60.8252 26.6077 65.6282 29.6807 72.4153 30.4477C73.7799 30.602 77.5265 30.5618 78.8137 30.3793H78.8135ZM102.758 24.8403V1.68113H109.98V3.21179C109.98 4.05384 109.996 4.74268 110.015 4.74268C110.034 4.74268 110.432 4.49381 110.898 4.18989C111.978 3.48593 114.109 2.43315 115.476 1.92887C121.375 -0.248451 128.578 -0.599755 134.881 0.982805C145.156 3.56242 151.207 10.6298 150.635 19.3842C150.199 26.0666 145.753 31.5557 138.439 34.4404C136.053 35.3813 133.608 35.9747 130.548 36.3553C128.933 36.5561 124.581 36.5561 122.895 36.3548C118.123 35.7856 113.934 34.3686 110.667 32.2191L109.98 31.7671V48H102.758V24.8403ZM130.41 30.3452C136.037 29.505 140.002 27.2383 142.085 23.6711C143.295 21.599 143.748 18.8424 143.3 16.2831C142.367 10.9637 137.692 7.28281 130.534 6.23206C125.81 5.5387 120.476 6.22935 116.85 8.00392C113.149 9.81549 110.921 12.5201 110.161 16.1261C109.961 17.0728 109.962 19.5065 110.162 20.4343C110.7 22.932 111.918 24.9985 113.765 26.5515C116.309 28.69 119.62 29.9635 123.916 30.4558C125.337 30.6185 128.997 30.5562 130.41 30.3452ZM21.5038 36.4884C17.6726 36.15 14.4026 35.3952 11.6219 34.2075C5.29709 31.5061 1.30233 26.9466 0.218185 21.1917C0.0110573 20.0927 -0.0679128 17.6164 0.0663363 16.4332C0.849268 9.53368 5.93178 4.06873 13.9673 1.48641C18.2434 0.112329 23.5069 -0.336672 28.2316 0.269818C36.8874 1.38127 43.4349 5.39498 46.3128 11.3541C48.6562 16.206 48.3588 22.0996 45.542 26.6307C44.2731 28.6717 42.1842 30.7782 40.0315 32.187C36.6823 34.3788 32.6821 35.7423 27.8236 36.3481C26.8505 36.4695 22.4065 36.5681 21.5038 36.4884ZM26.6274 30.4551C30.3949 30.0553 33.5643 28.9795 35.949 27.2918C37.8984 25.9118 39.4413 23.878 40.1335 21.7754C40.5387 20.5448 40.619 19.967 40.619 18.2851C40.619 16.6083 40.5398 16.0352 40.1378 14.8037C38.8163 10.7557 34.9512 7.74445 29.5508 6.55583C24.8158 5.51343 19.2937 5.87579 15.2026 7.49693C12.251 8.66659 9.92135 10.5601 8.55494 12.8994C7.10234 15.3869 6.77247 18.775 7.69936 21.6948C8.69799 24.841 11.3286 27.4739 14.9486 28.9506C16.9204 29.755 19.3617 30.3157 21.7786 30.5187C22.7059 30.5966 25.6587 30.5578 26.6274 30.4551ZM175.612 36.4911C175.461 36.474 174.931 36.4212 174.434 36.3743C170.447 35.9963 166.256 34.7373 163.183 32.9946C159.029 30.6385 156.136 27.2898 154.815 23.3094C153.921 20.6159 153.768 17.5886 154.386 14.8035C155.32 10.5921 157.883 7.01612 161.865 4.3713C167.114 0.883528 174.834 -0.665639 182.285 0.273428C188.476 1.05343 193.576 3.31761 197.125 6.86134C199.828 9.56008 201.382 12.7225 201.831 16.4381C201.948 17.4038 201.93 19.3567 201.794 20.3812C200.821 27.7595 194.971 33.3989 186.014 35.5958C183.298 36.2619 181.593 36.4636 178.399 36.4965C177.017 36.5108 175.763 36.5083 175.612 36.4911ZM180.362 30.4917C185.131 30.053 189.018 28.4813 191.513 25.9829C193.202 24.2914 194.183 22.4293 194.569 20.1786C194.729 19.2513 194.726 17.3179 194.565 16.356C193.696 11.1774 189.129 7.42338 182.364 6.32524C180.739 6.06148 179.659 5.97552 177.967 5.97552C170.382 5.97552 164.496 8.83581 162.232 13.6221C161.557 15.0487 161.246 16.521 161.246 18.2851C161.246 20.613 161.788 22.4593 163.013 24.2988C165.262 27.676 169.525 29.8335 175.169 30.4499C176.333 30.5769 179.186 30.6 180.362 30.4919L180.362 30.4917Z" fill="#B8BEC8"/>
</svg>
