<svg width="284" height="44" viewBox="0 0 284 44" fill="none" xmlns="http://www.w3.org/2000/svg">
<path d="M0.461937 40.3087L1.05013 35.9808C3.78049 37.7205 8.27513 39.8843 14.24 39.8843C21.129 39.8843 24.9934 37.1688 24.9934 32.3741C24.9934 19.7725 0 28.1736 0 11.8804C0 4.15815 5.04065 0 14.1139 0C22.8511 0 27.0097 3.60657 27.7658 9.67412L23.4812 10.5227C22.8092 5.98265 19.7427 3.81872 14.0299 3.81872C7.98103 3.81872 4.41057 6.53425 4.41057 11.4561C4.41057 24.6094 29.1941 15.487 29.3621 32.2894C29.4041 40.1389 24.3633 44 14.3239 44C6.9309 43.9152 2.77239 41.8361 0.461937 40.3087Z" fill="#B8BEC8"/>
<path d="M40.5346 18.075V36.0654C40.5346 39.3751 42.0048 40.1387 44.2312 40.1387C46.2894 40.1387 47.6336 39.5447 48.5577 39.1629L48.8938 42.9391C47.8857 43.2786 45.9953 43.9151 43.139 43.9151C38.7284 43.9151 36.25 42.3451 36.25 36.1079V18.075H30.9573V14.426H36.25V6.0249H40.5346V14.426H49.5659V18.075H40.5346Z" fill="#B8BEC8"/>
<path d="M67.9651 14.2139L67.6713 18.4568C67.3353 18.3296 66.5368 18.2022 65.4867 18.2022C61.2018 18.2022 58.4717 23.2939 58.4717 27.9612V43.1513H54.1873V14.426H57.9263L58.2201 19.9419C59.8156 16.2929 62.3785 13.832 65.4023 13.832C66.7477 13.832 67.5026 14.0442 67.9651 14.2139Z" fill="#B8BEC8"/>
<path d="M94.4705 40.9449C93 42.2178 89.1776 43.9574 83.2957 43.9574C74.1382 43.9574 69.561 38.4414 69.561 29.0644C69.561 20.1965 74.0554 13.832 83.6317 13.832C91.1935 13.832 94.3018 17.7779 94.3018 22.1058C94.3018 29.4038 88.1682 31.6951 74.0554 32.2891C74.9368 37.9748 78.5075 40.1386 83.6317 40.1386C88.6307 40.1386 92.4109 37.9748 93.6298 36.9988L94.4705 40.9449ZM73.8444 28.8098C86.1945 28.3431 90.059 26.9429 90.059 22.4029C90.059 20.1116 88.4635 17.6082 83.5066 17.6082C78.2559 17.6082 73.971 20.5359 73.8444 28.8098Z" fill="#B8BEC8"/>
<path d="M123.326 14.426V43.2361H119.755L119.294 39.0779C117.403 41.9632 114.168 43.9574 109.716 43.9574C102.114 43.9574 97.199 38.5688 97.199 29.3615C97.199 19.645 102.617 13.832 110.304 13.832C114.631 13.832 117.614 15.5292 119.336 17.9901L119.755 14.4685H123.326V14.426ZM119.042 31.992V26.8155C119.042 22.7847 117.025 17.5658 110.724 17.5658C104.844 17.5658 101.442 22.0634 101.442 29.319C101.442 36.2775 104.592 40.0963 110.304 40.0963C115.765 40.1386 119.042 36.617 119.042 31.992Z" fill="#B8BEC8"/>
<path d="M172.427 25.288V43.2361H168.144V25.967C168.144 20.7905 166.126 17.7355 161.674 17.7355C156.339 17.7355 153.358 21.9361 153.358 25.7548V43.1936H149.157V25.6276C149.157 20.5783 147.099 17.6932 142.73 17.6932C137.395 17.6932 134.455 21.9361 134.455 25.7973V43.1936H130.17V14.426H133.488L134.077 19.3479C135.799 16.1657 139.074 13.832 143.822 13.832C148.274 13.832 151.299 15.9111 152.601 19.8146C154.281 16.3354 157.725 13.832 162.682 13.832C168.941 13.832 172.427 17.6507 172.427 25.288Z" fill="#B8BEC8"/>
<path d="M209.653 0.635986L194.194 26.8578V43.2359H186.171V26.8578L170.713 0.635986H179.746L190.247 19.3477L200.831 0.635986H209.653Z" fill="#B8BEC8"/>
<path d="M232.247 14.426V43.2361H226.325L225.359 39.7143C223.468 42.3025 220.318 43.9574 216.201 43.9574C208.64 43.9574 203.389 38.4839 203.389 29.319C203.389 19.645 209.144 13.832 216.747 13.832C220.738 13.832 223.51 15.3171 225.317 17.481L225.989 14.426H232.247ZM224.392 30.9313V26.7732C224.098 23.4212 222.208 20.4936 218.049 20.4936C213.848 20.4936 210.993 23.5061 210.993 29.1916C210.993 34.5378 213.47 37.2959 217.755 37.2959C221.955 37.2534 224.392 34.5803 224.392 30.9313Z" fill="#B8BEC8"/>
<path d="M254.64 14.2986L254.177 21.8089C253.716 21.6391 252.875 21.3846 251.574 21.3846C248.548 21.3846 245.735 24.1425 245.735 29.6159V43.2361H237.837V14.426H244.18L244.852 18.7539C246.407 15.7414 248.759 13.832 251.741 13.832C253.254 13.832 254.261 14.1289 254.64 14.2986Z" fill="#B8BEC8"/>
<path d="M283.834 0.635986V43.2359H277.239L276.483 39.9263C274.425 42.2599 271.316 43.9571 267.158 43.9571C260.226 43.9571 255.102 39.1626 255.102 29.3612C255.102 19.5599 260.52 13.8317 269.132 13.8317C271.988 13.8317 274.256 14.3834 275.978 15.1046V0.635986H283.834ZM275.936 29.9976V22.2754C274.55 21.2995 272.618 20.4932 270.013 20.4932C265.813 20.4932 262.998 23.2513 262.998 29.2339C262.998 35.0044 265.603 37.2533 269.005 37.2533C272.785 37.2533 275.936 34.4104 275.936 29.9976Z" fill="#B8BEC8"/>
</svg>
