<svg width="293" height="80" viewBox="0 0 293 80" fill="none" xmlns="http://www.w3.org/2000/svg">
<path fill-rule="evenodd" clip-rule="evenodd" d="M292.727 58.059C292.723 59.339 292.224 60.5644 291.341 61.4644C290.459 62.3645 289.265 62.865 288.023 62.8555C286.784 62.8892 285.583 62.4074 284.692 61.5187C283.801 60.63 283.293 59.409 283.284 58.1306C283.298 56.8411 283.809 55.6103 284.705 54.7103C285.601 53.8103 286.807 53.3151 288.058 53.3342C289.288 53.3102 290.476 53.7973 291.355 54.686C292.233 55.5747 292.727 56.7903 292.727 58.059ZM284.465 58.059C284.587 60.0006 286.192 61.4855 288.077 61.4026C289.962 61.3196 291.438 59.6991 291.4 57.7538C291.362 55.8086 289.823 54.2511 287.936 54.2469C286.979 54.2842 286.074 54.7126 285.423 55.4377C284.772 56.1629 284.427 57.1252 284.465 58.1127V58.059ZM287.225 60.4215H286.131V55.7324C286.707 55.6476 287.286 55.5938 287.867 55.5713C288.414 55.5078 288.966 55.6405 289.429 55.9472C289.752 56.1687 289.937 56.5501 289.915 56.9494C289.879 57.5039 289.489 57.9654 288.961 58.0769C289.412 58.2201 289.638 58.5781 289.776 59.2224C289.833 59.6263 289.95 60.0188 290.124 60.3857H289.013C288.803 60.0303 288.668 59.6343 288.613 59.2224C288.613 58.7391 288.266 58.5065 287.693 58.5244H287.19L287.225 60.4215ZM287.225 57.7548H287.728C288.301 57.7548 288.787 57.54 288.787 57.0389C288.787 56.5378 288.492 56.3409 287.798 56.3409C287.607 56.315 287.415 56.315 287.225 56.3409V57.7548ZM82.6625 30.7903C82.2394 33.2331 81.7269 36.0602 81.0369 38.8873C81.8111 45.576 84.1336 53.2433 90.3109 53.0668C93.6173 52.9706 96.4721 50.9174 98.9076 47.9019C96.8839 41.7902 96.0785 35.3446 96.5367 28.9263C96.9399 19.7673 99.4721 1.49744 107.827 1.49744C116.907 1.49744 112.182 24.2265 110.746 29.3593C109.311 34.4922 106.972 42.4161 103.053 48.4954C104.671 51.708 107.988 53.7243 111.601 53.6924C113.511 53.7114 115.394 53.2419 117.069 52.329C115.404 49.7659 114.591 46.7469 114.746 43.6993C114.875 35.6952 119.407 29.5679 124.552 29.5679C130.359 29.5037 131.552 35.2782 129.649 41.582C128.399 45.6379 126.128 49.3094 123.052 52.2488C124.423 52.8388 125.918 53.0866 127.407 52.9706C130.207 52.9071 132.87 51.7555 134.826 49.7625C135.552 49.2332 136.407 49.4417 135.73 50.9816C135.052 52.5215 132.407 56.5796 125.375 56.5796C123.349 56.5934 121.367 55.9887 119.698 54.8473C117.274 56.375 114.498 57.2638 111.633 57.4298C107.17 57.7817 102.907 55.5214 100.714 51.6393C98.2589 54.8058 94.5761 56.7972 90.569 57.125C84.0691 57.4137 80.4724 52.5054 78.6014 46.4583C76.8434 50.5646 74.4241 53.7245 70.9564 54.2699C66.1177 55.0077 63.5855 51.3666 62.3113 46.7791C60.0694 51.9921 57.0372 56.1626 53.0534 56.1626C47.2631 56.1947 47.4889 47.2121 47.4889 47.2121C44.5051 54.3982 38.1504 62.0815 29.7473 60.8143C23.8764 59.9481 20.4248 55.6493 18.4571 50.2438C15.3754 53.0416 11.9698 55.4647 8.31207 57.4619C4.90889 59.3065 2.57021 59.916 1.0541 59.6915C-0.462006 59.4669 -0.236202 58.5847 1.0541 58.0874C7.33028 55.4663 12.9153 51.4432 17.3765 46.3299C16.2187 40.8706 15.8655 35.2727 16.3281 29.7122C17.1184 19.7512 22.2474 -1.51813 32.1343 0.0858978C43.0697 1.94657 36.0859 23.7132 32.6827 31.0917C29.9066 36.9994 26.1803 42.4172 21.6506 47.1319C23.2151 52.4733 26.1505 56.9807 31.4247 56.8684C39.5536 56.6919 44.2309 45.4638 46.8438 38.6948C47.6986 36.5133 48.6825 35.6952 50.0696 35.8717C51.4566 36.0481 52.1663 37.1389 51.9405 39.4005C51.6197 41.8086 51.501 44.2391 51.5857 46.6668C51.8599 49.1691 52.2308 51.6232 53.8598 51.7195C55.4888 51.8157 58.7791 46.362 61.1662 39.0958C61.008 36.8261 61.008 34.5483 61.1662 32.2787C61.2295 31.4835 61.3007 30.7152 61.3808 29.9777C58.5369 29.946 56.263 29.9718 55.1504 30.0803C54.7011 32.8697 52.6633 34.0759 50.3367 34.2644C47.4003 34.4905 43.437 32.9074 43.437 30.1557C43.437 27.4041 47.3842 25.0105 50.3046 24.7844C52.6473 24.5959 54.7172 25.5759 55.1183 28.3653C56.2464 28.1592 58.6558 27.9339 61.6703 27.7251C62.3353 23.3342 63.4526 20.4752 65.3919 20.3287C67.4298 20.1748 67.7039 23.4778 67.2783 27.3912C70.6395 27.2188 74.2058 27.0807 77.3698 27.0086C78.6331 16.2052 81.0431 14.9486 82.3433 15.0514C83.7572 15.1633 85.1872 17.0262 83.3325 26.9673C84.7827 26.9923 85.8924 27.0534 86.504 27.1591C89.7292 27.4041 92.6335 28.1768 92.5373 29.5526C92.441 30.9285 90.8204 31.4373 86.3917 31.1358C85.701 31.0267 84.3836 30.9084 82.6625 30.7903ZM77.0351 30.4711C73.8399 30.3173 70.2552 30.1812 66.8976 30.089C66.8798 30.1933 66.8618 30.2977 66.8435 30.402C66.4564 32.6636 65.8597 35.583 65.0371 38.6146C65.0855 39.3685 65.15 40.1224 65.2468 40.8762C65.9887 46.6347 67.9725 50.9014 70.3435 50.9014C73.4402 50.9495 75.7144 45.0788 77.1982 39.2883C76.8819 36.3596 76.8273 33.409 77.0351 30.4711ZM19.9248 33.8667C19.8873 36.7705 20.0868 39.6727 20.5216 42.5444C22.3765 40.186 24.0428 37.6868 25.5054 35.0697C31.1182 24.9964 36.0375 5.39522 31.1182 4.49697C26.1989 3.59871 20.1667 22.4941 19.9248 33.8667ZM64.15 24.3548V24.1142C64.15 24.1142 64.1339 24.0981 64.15 24.3548ZM100.569 26.5844C99.8877 32.4228 100.16 38.3323 101.375 44.0843C104.363 38.2571 106.477 32.0262 107.649 25.5899C109.811 13.8645 109.101 6.56616 107.649 6.10099C106.198 5.63582 101.956 11.699 100.569 26.5844ZM118.73 42.7369C118.414 45.2344 118.966 47.7643 120.294 49.9069C122.749 47.4814 124.614 44.5296 125.746 41.2773C126.907 37.8767 126.859 33.6742 124.407 33.4657C121.956 33.2571 119.214 37.3474 118.73 42.7369ZM159.142 40.7476C163.721 41.6558 168.174 42.2502 168.081 47.848C167.893 53.1485 163.205 57.3262 157.142 58.6638C151.079 60.0013 146.515 57.4583 145.969 56.8969C145.422 56.3355 144.906 55.097 146.406 55.4768C147.906 55.8566 150.172 56.5006 156.095 55.1466C160.783 54.0898 164.033 50.3744 164.127 47.9966C164.221 45.6188 160.783 45.1729 156.704 44.2482C152.235 43.2575 147.688 41.9695 147.688 36.9331C147.75 32.4252 151.141 28.6273 156.689 27.2072C162.236 25.7871 165.69 27.5375 166.549 28.2145C167.792 28.9408 168.263 30.5796 167.612 31.9133C166.612 33.3169 164.971 32.4252 164.174 31.9133C163.377 31.4014 162.252 30.5923 158.314 30.9886C154.376 31.3849 151.422 34.159 151.422 36.6855C151.422 39.2119 154.876 39.9054 159.142 40.7476ZM286.948 43.9875C287.348 44.6729 286.66 46.2885 285.38 48.1815C284.101 50.0745 279.365 57.9403 272.455 56.9448C265.544 55.9493 264.984 48.7363 264.872 45.0319C264.776 39.2549 265.944 34.1307 264.872 33.6085C264.152 33.2658 261.801 35.3057 258.809 40.691C256.755 44.526 254.902 48.4699 253.258 52.506C252.059 55.0355 251.499 55.574 250.059 55.0355C249.147 54.6601 248.619 53.5994 249.147 50.6783C249.531 48.8832 250.043 46.9086 250.747 42.3556C251.138 40.2433 251.384 38.1057 251.483 35.9585C249.116 37.103 246.591 37.8681 243.996 38.2268C244.05 40.6737 243.654 43.1092 242.828 45.4072C240.141 53.2893 235.726 54.9865 232.718 54.7907C227.999 54.497 225.536 50.6783 225.536 45.9131C225.385 43.68 225.758 41.4424 226.623 39.3855C224.986 40.212 223.271 40.8681 221.504 41.3438C220.257 47.6266 216.369 53.9911 210.658 54.5459C207.116 55.088 203.652 53.1612 202.18 49.8297C201.373 47.9618 200.87 45.9718 200.692 43.9385C198.585 46.4771 196.115 48.6777 193.366 50.4661C191.545 51.6677 189.617 52.6895 187.607 53.5178C186.636 54.5326 185.44 55.2938 184.119 55.7372C178.296 57.5813 177.161 54.4154 179.32 52.7834C180.936 51.5922 181.944 51.9022 184.823 50.8741C187.014 48.5593 188.55 45.6837 189.27 42.5514C190.598 37.8678 191.078 31.3402 187.111 29.7083C182.04 27.701 177.752 33.7064 174.841 40.2341C176.565 47.913 177.381 55.775 177.273 63.652C177.129 71.1261 174.841 80.5912 171.642 79.971C163.963 78.5023 166.059 56.9938 168.026 48.9648C168.841 45.6208 169.911 42.347 171.226 39.1733C170.922 37.4109 170.586 35.779 170.186 34.1471C169.322 30.6548 167.866 29.4961 168.858 28.7454C169.514 28.2559 171.69 29.3492 173.401 34.604C176.601 28.827 181.032 24.2251 186.759 24.8125C195.269 25.6285 195.333 37.4109 192.998 43.5795C192.438 44.934 191.926 46.2069 191.398 47.3818C195.28 44.1819 198.747 40.4914 201.716 36.3991C202.756 35.0936 203.38 35.012 204.355 35.4199C205.331 35.8279 205.459 36.7744 205.091 39.0917C204.723 41.409 204.483 50.9231 210.13 51.2005C213.73 51.38 216.129 46.8107 217.281 42.2087C215.648 42.3681 214.001 42.2579 212.402 41.8823C207.011 40.5605 204.371 37.4598 205.091 31.944C205.285 29.8281 206.304 27.8803 207.919 26.539C209.535 25.1977 211.612 24.5755 213.682 24.8125C216.593 25.1063 222.416 27.7337 221.92 37.672C223.582 37.0208 225.187 36.2293 226.719 35.3057C228.991 34.0002 230.527 33.2495 231.39 34.6366C231.902 35.4526 231.87 35.9911 231.15 37.8025C230.072 40.2199 229.525 42.8492 229.551 45.5051C229.791 48.2141 231.102 50.8904 233.63 50.972C236.158 51.0536 238.861 47.9204 239.837 41.2622C239.928 40.3951 239.966 39.523 239.949 38.6511C234.638 38.3574 229.807 34.8977 231.23 30.7853C232.782 26.2323 238.205 27.9458 239.997 29.3656C241.646 30.8134 242.804 32.7551 243.308 34.9141C244.172 34.8161 244.908 34.6856 245.772 34.5224C248.249 34.1034 250.591 33.085 252.602 31.5523C253.77 30.9975 255.61 31.7645 255.37 34.2613C255.13 36.7581 254.65 40.0219 254.65 40.0219C256.044 37.2685 257.745 34.6892 259.721 32.3356C262.057 29.9367 264.776 27.6031 267.72 29.235C270.199 30.6548 269.319 34.8161 268.983 37.982C268.487 42.4371 267.944 50.6946 272.183 52.2286C275.718 53.5504 278.582 50.9394 281.221 48.6547C283.861 46.37 286.324 42.8778 286.948 43.9875ZM172.905 58.3972C172.745 54.7091 172.521 50.9394 172.154 47.2186C171.77 48.3773 171.466 49.5033 171.226 50.4825C169.594 57.1896 168.842 73.9656 170.874 74.8305C171.306 74.9937 173.289 67.2258 172.905 58.3972ZM212.642 38.39C214.319 38.8509 216.068 38.9783 217.793 38.7654C217.921 38.1616 217.921 37.623 217.921 37.1334C218.161 31.7318 215.169 28.9739 212.274 29.1861C210.357 29.4242 208.808 30.8927 208.435 32.8252C208.035 35.1262 208.851 37.3782 212.642 38.39ZM236.062 34.0165H236.078C237.078 34.6832 238.242 35.0507 239.437 35.0772C239.055 33.667 238.012 32.542 236.653 32.0745C235.086 31.6829 234.142 32.5804 236.062 34.0165Z" fill="#B8BEC8"/>
</svg>
