<svg width="219" height="64" viewBox="0 0 219 64" fill="none" xmlns="http://www.w3.org/2000/svg">
<path d="M178.256 10.4096C181.042 10.4096 183.203 8.1028 183.203 5.20452C183.203 2.36539 181.042 0.0585938 178.256 0.0585938C175.527 0.0585938 173.253 2.36539 173.253 5.20452C173.196 8.1028 175.527 10.4096 178.256 10.4096Z" fill="#B8BEC8"/>
<path d="M135.616 14.0196H143.064V18.7515C144.94 15.9124 149.09 13.3098 153.98 13.3098C163.247 13.3098 170.297 21.5315 170.297 31.6459C170.297 41.7011 163.247 49.9819 153.98 49.9819C149.09 49.9819 144.997 47.3794 143.064 44.5403V64.0001H135.616V14.0196ZM152.615 20.3485C146.589 20.3485 142.438 25.2578 142.438 31.6459C142.438 37.9748 146.589 42.9433 152.615 42.9433C158.585 42.9433 162.735 38.0339 162.735 31.6459C162.735 25.317 158.585 20.3485 152.615 20.3485Z" fill="#B8BEC8"/>
<path d="M187.471 14.0179H194.919V18.8089C196.965 15.26 200.831 13.3081 205.209 13.3081C213.055 13.3081 218.172 19.1047 218.172 28.0361V49.2704H210.724V29.3374C210.724 23.7774 207.995 20.4059 203.674 20.4059C198.728 20.4059 194.919 24.428 194.919 31.9399V49.2704H187.471V14.0179Z" fill="#B8BEC8"/>
<path d="M78.8912 13.3079C74.5134 13.3079 70.6474 15.2598 68.6007 18.8087V0.0585938H61.1528V49.2702H68.6007V31.9397C68.6007 24.4278 72.4099 20.4057 77.3561 20.4057C81.677 20.4057 84.406 23.7772 84.406 29.3371V49.2702H91.8538V28.0359C91.7969 19.1044 86.737 13.3079 78.8912 13.3079Z" fill="#B8BEC8"/>
<path d="M181.913 14.0195H174.465V49.2721H181.913V14.0195Z" fill="#B8BEC8"/>
<path d="M113.727 49.9819C103.721 49.9819 95.9888 41.8786 95.9888 31.6459C95.9888 21.4132 103.721 13.3098 113.727 13.3098C123.733 13.3098 131.465 21.4132 131.465 31.6459C131.465 41.8786 123.733 49.9819 113.727 49.9819ZM113.727 42.7658C119.697 42.7658 123.904 37.9156 123.904 31.6459C123.904 25.3761 119.697 20.5259 113.727 20.5259C107.701 20.5259 103.493 25.3761 103.493 31.6459C103.493 37.9156 107.701 42.7658 113.727 42.7658Z" fill="#B8BEC8"/>
<path d="M29.2252 9.52292C29.1684 11.8889 27.5765 15.2603 24.9044 15.2603C23.2556 15.2603 21.8911 13.8408 21.8911 12.1255V12.0663C21.8343 9.28632 20.6403 6.86123 18.7642 5.14593C17.3428 3.90381 15.5804 3.07573 13.6473 2.83913C15.2961 1.06467 17.6271 0 20.1855 0C23.4262 0 26.3826 1.9519 28.0882 4.79103C28.8841 6.2106 29.2821 7.92591 29.2252 9.52292Z" fill="#B8BEC8"/>
<path d="M18.6712 9.75877C20.0925 11.6515 20.9453 15.2596 18.8986 17.034C17.5909 18.1579 15.7148 17.9804 14.6345 16.6792C12.8721 14.609 10.4274 13.5443 7.98267 13.4851C6.1065 13.426 4.23033 14.0175 2.63843 15.1413C2.80899 12.7162 3.88921 10.2911 5.87909 8.5758C8.4375 6.3873 12.0193 5.73667 15.0894 7.03794C16.5107 7.57028 17.7615 8.51665 18.6712 9.75877Z" fill="#B8BEC8"/>
<path d="M10.693 16.9759C12.9103 17.4491 15.8667 19.6968 15.4119 22.4176C15.1276 24.1329 13.5357 25.2567 11.887 24.961H11.8301C9.21484 24.547 6.65642 25.375 4.78025 26.972C3.35891 28.155 2.22184 29.8703 1.71016 31.8222C0.34567 29.8112 -0.27972 27.2678 0.118256 24.6061C0.743646 21.2346 3.07464 18.3955 6.25845 17.2717C7.67979 16.7985 9.27169 16.6802 10.693 16.9759Z" fill="#B8BEC8"/>
<path d="M9.05856 27.8594C11.0484 26.7356 14.6871 26.499 15.9947 28.865C16.8475 30.3437 16.3358 32.2956 14.9145 33.1828C12.6403 34.6024 11.219 36.9092 10.7073 39.4526C10.3662 41.3453 10.5368 43.3564 11.3896 45.19C9.11542 44.5985 7.01183 43.0606 5.76105 40.7538C4.11229 37.7372 4.16915 34.0109 5.87476 31.0535C6.67071 29.693 7.75093 28.5692 9.05856 27.8594Z" fill="#B8BEC8"/>
<path d="M14.5153 37.2633C15.3681 35.0748 17.9834 32.4723 20.4281 33.4187C22.02 34.0101 22.816 35.8437 22.2474 37.4408C21.3946 40.0433 21.7358 42.7641 22.9297 45.0118C23.8393 46.7271 25.2038 48.0875 26.9663 48.9747C24.8059 50.0394 22.3043 50.276 19.9164 49.3296C16.7895 48.1467 14.5153 45.2484 14.0037 41.8178C13.8331 40.2799 14.0037 38.6829 14.5153 37.2633Z" fill="#B8BEC8"/>
<path d="M24.5088 40.8124C23.7697 38.5647 24.1677 34.8384 26.6693 33.892C28.2612 33.3005 29.9668 34.1286 30.5353 35.7847C31.5018 38.3281 33.4349 40.2209 35.7659 41.1673C37.4715 41.877 39.4613 41.9953 41.3375 41.5221C40.371 43.7698 38.5517 45.6034 36.1638 46.5498C33.0369 47.7327 29.4551 47.023 27.0104 44.7162C25.8733 43.5923 24.9637 42.2911 24.5088 40.8124Z" fill="#B8BEC8"/>
<path d="M34.3987 36.8505C32.4657 35.6084 30.419 32.4735 31.7835 30.1075C32.6363 28.6288 34.4556 28.0965 35.9338 28.9246C38.2648 30.2258 40.88 30.4033 43.2679 29.5752C45.0304 28.9246 46.6223 27.7416 47.7593 26.0854C48.3847 28.4514 48.1573 31.0539 46.8497 33.3607C45.2009 36.3773 42.0171 38.2109 38.7196 38.0926C37.1277 38.0926 35.5926 37.6786 34.3987 36.8505Z" fill="#B8BEC8"/>
<path d="M39.5166 27.2094C37.2424 27.5642 33.7744 26.4996 33.3195 23.7787C32.9784 22.1226 34.1155 20.4664 35.7642 20.1707H35.8211C38.4364 19.6383 40.5399 17.9822 41.7907 15.7937C42.7572 14.1375 43.2121 12.1856 43.0415 10.1746C44.9745 11.535 46.4527 13.7235 46.8507 16.326C47.4192 19.6975 46.1116 23.2464 43.5532 25.3757C42.3593 26.3221 40.9379 27.0319 39.5166 27.2094Z" fill="#B8BEC8"/>
<path d="M37.4741 16.4401C35.939 18.2146 32.6415 19.7524 30.5948 17.978C29.2871 16.8541 29.1166 14.9022 30.1968 13.5418C31.8455 11.4125 32.4709 8.69164 32.073 6.14825C31.7887 4.25549 30.9359 2.42189 29.5714 0.943172C31.9024 0.706578 34.3471 1.41636 36.337 3.13167C38.8954 5.32017 40.0893 8.92823 39.4071 12.2997C39.1228 13.8376 38.4406 15.3163 37.4741 16.4401Z" fill="#B8BEC8"/>
</svg>
