<svg width="22" height="23" viewBox="0 0 22 23" fill="none" xmlns="http://www.w3.org/2000/svg">
<path d="M20.44 11.05L11.25 20.24C10.1242 21.3658 8.59718 21.9983 7.005 21.9983C5.41282 21.9983 3.88584 21.3658 2.76 20.24C1.63416 19.1141 1.00166 17.5872 1.00166 15.995C1.00166 14.4028 1.63416 12.8758 2.76 11.75L11.95 2.55998C12.7006 1.80942 13.7185 1.38776 14.78 1.38776C15.8415 1.38776 16.8594 1.80942 17.61 2.55998C18.3606 3.31054 18.7822 4.32852 18.7822 5.38998C18.7822 6.45144 18.3606 7.46942 17.61 8.21998L8.41 17.41C8.03472 17.7853 7.52573 17.9961 6.995 17.9961C6.46427 17.9961 5.95528 17.7853 5.58 17.41C5.20472 17.0347 4.99389 16.5257 4.99389 15.995C4.99389 15.4643 5.20472 14.9553 5.58 14.58L14.07 6.09998" stroke="white" stroke-width="2" stroke-linecap="round" stroke-linejoin="round"/>
</svg>
